<svg width="70" height="130" viewBox="0 0 70 130" fill="none" xmlns="http://www.w3.org/2000/svg">
<path fill-rule="evenodd" clip-rule="evenodd" d="M25 10C27.7614 10 30 7.76142 30 5C30 2.23858 27.7614 0 25 0C22.2386 0 20 2.23858 20 5C20 7.76142 22.2386 10 25 10Z" fill="#141416"/>
<path fill-rule="evenodd" clip-rule="evenodd" d="M5 10C7.76142 10 10 7.76142 10 5C10 2.23858 7.76142 0 5 0C2.23858 0 0 2.23858 0 5C0 7.76142 2.23858 10 5 10Z" fill="#141416"/>
<path fill-rule="evenodd" clip-rule="evenodd" d="M5 30C7.76142 30 10 27.7614 10 25C10 22.2386 7.76142 20 5 20C2.23858 20 0 22.2386 0 25C0 27.7614 2.23858 30 5 30Z" fill="#141416"/>
<path fill-rule="evenodd" clip-rule="evenodd" d="M25 30C27.7614 30 30 27.7614 30 25C30 22.2386 27.7614 20 25 20C22.2386 20 20 22.2386 20 25C20 27.7614 22.2386 30 25 30Z" fill="#141416"/>
<path fill-rule="evenodd" clip-rule="evenodd" d="M25 50C27.7614 50 30 47.7614 30 45C30 42.2386 27.7614 40 25 40C22.2386 40 20 42.2386 20 45C20 47.7614 22.2386 50 25 50Z" fill="#141416"/>
<path fill-rule="evenodd" clip-rule="evenodd" d="M25 70C27.7614 70 30 67.7614 30 65C30 62.2386 27.7614 60 25 60C22.2386 60 20 62.2386 20 65C20 67.7614 22.2386 70 25 70Z" fill="#141416"/>
<path fill-rule="evenodd" clip-rule="evenodd" d="M5 50C7.76142 50 10 47.7614 10 45C10 42.2386 7.76142 40 5 40C2.23858 40 0 42.2386 0 45C0 47.7614 2.23858 50 5 50Z" fill="#141416"/>
<path fill-rule="evenodd" clip-rule="evenodd" d="M5 70C7.76142 70 10 67.7614 10 65C10 62.2386 7.76142 60 5 60C2.23858 60 0 62.2386 0 65C0 67.7614 2.23858 70 5 70Z" fill="#141416"/>
<path fill-rule="evenodd" clip-rule="evenodd" d="M5 90C7.76142 90 10 87.7614 10 85C10 82.2386 7.76142 80 5 80C2.23858 80 0 82.2386 0 85C0 87.7614 2.23858 90 5 90Z" fill="#141416"/>
<path fill-rule="evenodd" clip-rule="evenodd" d="M25 90C27.7614 90 30 87.7614 30 85C30 82.2386 27.7614 80 25 80C22.2386 80 20 82.2386 20 85C20 87.7614 22.2386 90 25 90Z" fill="#141416"/>
<path fill-rule="evenodd" clip-rule="evenodd" d="M25 110C27.7614 110 30 107.761 30 105C30 102.239 27.7614 100 25 100C22.2386 100 20 102.239 20 105C20 107.761 22.2386 110 25 110Z" fill="#141416"/>
<path fill-rule="evenodd" clip-rule="evenodd" d="M25 130C27.7614 130 30 127.761 30 125C30 122.239 27.7614 120 25 120C22.2386 120 20 122.239 20 125C20 127.761 22.2386 130 25 130Z" fill="#141416"/>
<path fill-rule="evenodd" clip-rule="evenodd" d="M5 110C7.76142 110 10 107.761 10 105C10 102.239 7.76142 100 5 100C2.23858 100 0 102.239 0 105C0 107.761 2.23858 110 5 110Z" fill="#141416"/>
<path fill-rule="evenodd" clip-rule="evenodd" d="M5 130C7.76142 130 10 127.761 10 125C10 122.239 7.76142 120 5 120C2.23858 120 0 122.239 0 125C0 127.761 2.23858 130 5 130Z" fill="#141416"/>
<path fill-rule="evenodd" clip-rule="evenodd" d="M65 10C67.7614 10 70 7.76142 70 5C70 2.23858 67.7614 0 65 0C62.2386 0 60 2.23858 60 5C60 7.76142 62.2386 10 65 10Z" fill="#141416"/>
<path fill-rule="evenodd" clip-rule="evenodd" d="M45 10C47.7614 10 50 7.76142 50 5C50 2.23858 47.7614 0 45 0C42.2386 0 40 2.23858 40 5C40 7.76142 42.2386 10 45 10Z" fill="#141416"/>
<path fill-rule="evenodd" clip-rule="evenodd" d="M45 30C47.7614 30 50 27.7614 50 25C50 22.2386 47.7614 20 45 20C42.2386 20 40 22.2386 40 25C40 27.7614 42.2386 30 45 30Z" fill="#141416"/>
<path fill-rule="evenodd" clip-rule="evenodd" d="M65 30C67.7614 30 70 27.7614 70 25C70 22.2386 67.7614 20 65 20C62.2386 20 60 22.2386 60 25C60 27.7614 62.2386 30 65 30Z" fill="#141416"/>
<path fill-rule="evenodd" clip-rule="evenodd" d="M65 50C67.7614 50 70 47.7614 70 45C70 42.2386 67.7614 40 65 40C62.2386 40 60 42.2386 60 45C60 47.7614 62.2386 50 65 50Z" fill="#141416"/>
<path fill-rule="evenodd" clip-rule="evenodd" d="M65 70C67.7614 70 70 67.7614 70 65C70 62.2386 67.7614 60 65 60C62.2386 60 60 62.2386 60 65C60 67.7614 62.2386 70 65 70Z" fill="#141416"/>
<path fill-rule="evenodd" clip-rule="evenodd" d="M45 50C47.7614 50 50 47.7614 50 45C50 42.2386 47.7614 40 45 40C42.2386 40 40 42.2386 40 45C40 47.7614 42.2386 50 45 50Z" fill="#141416"/>
<path fill-rule="evenodd" clip-rule="evenodd" d="M45 70C47.7614 70 50 67.7614 50 65C50 62.2386 47.7614 60 45 60C42.2386 60 40 62.2386 40 65C40 67.7614 42.2386 70 45 70Z" fill="#141416"/>
<path fill-rule="evenodd" clip-rule="evenodd" d="M45 90C47.7614 90 50 87.7614 50 85C50 82.2386 47.7614 80 45 80C42.2386 80 40 82.2386 40 85C40 87.7614 42.2386 90 45 90Z" fill="#141416"/>
<path fill-rule="evenodd" clip-rule="evenodd" d="M65 90C67.7614 90 70 87.7614 70 85C70 82.2386 67.7614 80 65 80C62.2386 80 60 82.2386 60 85C60 87.7614 62.2386 90 65 90Z" fill="#141416"/>
<path fill-rule="evenodd" clip-rule="evenodd" d="M65 110C67.7614 110 70 107.761 70 105C70 102.239 67.7614 100 65 100C62.2386 100 60 102.239 60 105C60 107.761 62.2386 110 65 110Z" fill="#141416"/>
<path fill-rule="evenodd" clip-rule="evenodd" d="M65 130C67.7614 130 70 127.761 70 125C70 122.239 67.7614 120 65 120C62.2386 120 60 122.239 60 125C60 127.761 62.2386 130 65 130Z" fill="#141416"/>
<path fill-rule="evenodd" clip-rule="evenodd" d="M45 110C47.7614 110 50 107.761 50 105C50 102.239 47.7614 100 45 100C42.2386 100 40 102.239 40 105C40 107.761 42.2386 110 45 110Z" fill="#141416"/>
<path fill-rule="evenodd" clip-rule="evenodd" d="M45 130C47.7614 130 50 127.761 50 125C50 122.239 47.7614 120 45 120C42.2386 120 40 122.239 40 125C40 127.761 42.2386 130 45 130Z" fill="#141416"/>
</svg>
