<svg width="70" height="370" viewBox="0 0 70 370" fill="none" xmlns="http://www.w3.org/2000/svg">
<path fill-rule="evenodd" clip-rule="evenodd" d="M5 10C7.76142 10 10 7.76142 10 5C10 2.23858 7.76142 0 5 0C2.23858 0 0 2.23858 0 5C0 7.76142 2.23858 10 5 10Z" fill="#141416"/>
<path fill-rule="evenodd" clip-rule="evenodd" d="M25 10C27.7614 10 30 7.76142 30 5C30 2.23858 27.7614 0 25 0C22.2386 0 20 2.23858 20 5C20 7.76142 22.2386 10 25 10Z" fill="#141416"/>
<path fill-rule="evenodd" clip-rule="evenodd" d="M25 30C27.7614 30 30 27.7614 30 25C30 22.2386 27.7614 20 25 20C22.2386 20 20 22.2386 20 25C20 27.7614 22.2386 30 25 30Z" fill="#141416"/>
<path fill-rule="evenodd" clip-rule="evenodd" d="M25 50C27.7614 50 30 47.7614 30 45C30 42.2386 27.7614 40 25 40C22.2386 40 20 42.2386 20 45C20 47.7614 22.2386 50 25 50Z" fill="#141416"/>
<path fill-rule="evenodd" clip-rule="evenodd" d="M5 30C7.76142 30 10 27.7614 10 25C10 22.2386 7.76142 20 5 20C2.23858 20 0 22.2386 0 25C0 27.7614 2.23858 30 5 30Z" fill="#141416"/>
<path fill-rule="evenodd" clip-rule="evenodd" d="M5 50C7.76142 50 10 47.7614 10 45C10 42.2386 7.76142 40 5 40C2.23858 40 0 42.2386 0 45C0 47.7614 2.23858 50 5 50Z" fill="#141416"/>
<path fill-rule="evenodd" clip-rule="evenodd" d="M5 70C7.76142 70 10 67.7614 10 65C10 62.2386 7.76142 60 5 60C2.23858 60 0 62.2386 0 65C0 67.7614 2.23858 70 5 70Z" fill="#141416"/>
<path fill-rule="evenodd" clip-rule="evenodd" d="M25 70C27.7614 70 30 67.7614 30 65C30 62.2386 27.7614 60 25 60C22.2386 60 20 62.2386 20 65C20 67.7614 22.2386 70 25 70Z" fill="#141416"/>
<path fill-rule="evenodd" clip-rule="evenodd" d="M25 90C27.7614 90 30 87.7614 30 85C30 82.2386 27.7614 80 25 80C22.2386 80 20 82.2386 20 85C20 87.7614 22.2386 90 25 90Z" fill="#141416"/>
<path fill-rule="evenodd" clip-rule="evenodd" d="M25 110C27.7614 110 30 107.761 30 105C30 102.239 27.7614 100 25 100C22.2386 100 20 102.239 20 105C20 107.761 22.2386 110 25 110Z" fill="#141416"/>
<path fill-rule="evenodd" clip-rule="evenodd" d="M5 90C7.76142 90 10 87.7614 10 85C10 82.2386 7.76142 80 5 80C2.23858 80 0 82.2386 0 85C0 87.7614 2.23858 90 5 90Z" fill="#141416"/>
<path fill-rule="evenodd" clip-rule="evenodd" d="M5 110C7.76142 110 10 107.761 10 105C10 102.239 7.76142 100 5 100C2.23858 100 0 102.239 0 105C0 107.761 2.23858 110 5 110Z" fill="#141416"/>
<path fill-rule="evenodd" clip-rule="evenodd" d="M5 130C7.76142 130 10 127.761 10 125C10 122.239 7.76142 120 5 120C2.23858 120 0 122.239 0 125C0 127.761 2.23858 130 5 130Z" fill="#141416"/>
<path fill-rule="evenodd" clip-rule="evenodd" d="M25 130C27.7614 130 30 127.761 30 125C30 122.239 27.7614 120 25 120C22.2386 120 20 122.239 20 125C20 127.761 22.2386 130 25 130Z" fill="#141416"/>
<path fill-rule="evenodd" clip-rule="evenodd" d="M25 150C27.7614 150 30 147.761 30 145C30 142.239 27.7614 140 25 140C22.2386 140 20 142.239 20 145C20 147.761 22.2386 150 25 150Z" fill="#141416"/>
<path fill-rule="evenodd" clip-rule="evenodd" d="M25 170C27.7614 170 30 167.761 30 165C30 162.239 27.7614 160 25 160C22.2386 160 20 162.239 20 165C20 167.761 22.2386 170 25 170Z" fill="#141416"/>
<path fill-rule="evenodd" clip-rule="evenodd" d="M5 150C7.76142 150 10 147.761 10 145C10 142.239 7.76142 140 5 140C2.23858 140 0 142.239 0 145C0 147.761 2.23858 150 5 150Z" fill="#141416"/>
<path fill-rule="evenodd" clip-rule="evenodd" d="M5 170C7.76142 170 10 167.761 10 165C10 162.239 7.76142 160 5 160C2.23858 160 0 162.239 0 165C0 167.761 2.23858 170 5 170Z" fill="#141416"/>
<path fill-rule="evenodd" clip-rule="evenodd" d="M5 190C7.76142 190 10 187.761 10 185C10 182.239 7.76142 180 5 180C2.23858 180 0 182.239 0 185C0 187.761 2.23858 190 5 190Z" fill="#141416"/>
<path fill-rule="evenodd" clip-rule="evenodd" d="M25 190C27.7614 190 30 187.761 30 185C30 182.239 27.7614 180 25 180C22.2386 180 20 182.239 20 185C20 187.761 22.2386 190 25 190Z" fill="#141416"/>
<path fill-rule="evenodd" clip-rule="evenodd" d="M25 210C27.7614 210 30 207.761 30 205C30 202.239 27.7614 200 25 200C22.2386 200 20 202.239 20 205C20 207.761 22.2386 210 25 210Z" fill="#141416"/>
<path fill-rule="evenodd" clip-rule="evenodd" d="M25 230C27.7614 230 30 227.761 30 225C30 222.239 27.7614 220 25 220C22.2386 220 20 222.239 20 225C20 227.761 22.2386 230 25 230Z" fill="#141416"/>
<path fill-rule="evenodd" clip-rule="evenodd" d="M5 210C7.76142 210 10 207.761 10 205C10 202.239 7.76142 200 5 200C2.23858 200 0 202.239 0 205C0 207.761 2.23858 210 5 210Z" fill="#141416"/>
<path fill-rule="evenodd" clip-rule="evenodd" d="M5 230C7.76142 230 10 227.761 10 225C10 222.239 7.76142 220 5 220C2.23858 220 0 222.239 0 225C0 227.761 2.23858 230 5 230Z" fill="#141416"/>
<path fill-rule="evenodd" clip-rule="evenodd" d="M45 10C47.7614 10 50 7.76142 50 5C50 2.23858 47.7614 0 45 0C42.2386 0 40 2.23858 40 5C40 7.76142 42.2386 10 45 10Z" fill="#141416"/>
<path fill-rule="evenodd" clip-rule="evenodd" d="M65 10C67.7614 10 70 7.76142 70 5C70 2.23858 67.7614 0 65 0C62.2386 0 60 2.23858 60 5C60 7.76142 62.2386 10 65 10Z" fill="#141416"/>
<path fill-rule="evenodd" clip-rule="evenodd" d="M65 30C67.7614 30 70 27.7614 70 25C70 22.2386 67.7614 20 65 20C62.2386 20 60 22.2386 60 25C60 27.7614 62.2386 30 65 30Z" fill="#141416"/>
<path fill-rule="evenodd" clip-rule="evenodd" d="M65 50C67.7614 50 70 47.7614 70 45C70 42.2386 67.7614 40 65 40C62.2386 40 60 42.2386 60 45C60 47.7614 62.2386 50 65 50Z" fill="#141416"/>
<path fill-rule="evenodd" clip-rule="evenodd" d="M45 30C47.7614 30 50 27.7614 50 25C50 22.2386 47.7614 20 45 20C42.2386 20 40 22.2386 40 25C40 27.7614 42.2386 30 45 30Z" fill="#141416"/>
<path fill-rule="evenodd" clip-rule="evenodd" d="M45 50C47.7614 50 50 47.7614 50 45C50 42.2386 47.7614 40 45 40C42.2386 40 40 42.2386 40 45C40 47.7614 42.2386 50 45 50Z" fill="#141416"/>
<path fill-rule="evenodd" clip-rule="evenodd" d="M45 70C47.7614 70 50 67.7614 50 65C50 62.2386 47.7614 60 45 60C42.2386 60 40 62.2386 40 65C40 67.7614 42.2386 70 45 70Z" fill="#141416"/>
<path fill-rule="evenodd" clip-rule="evenodd" d="M65 70C67.7614 70 70 67.7614 70 65C70 62.2386 67.7614 60 65 60C62.2386 60 60 62.2386 60 65C60 67.7614 62.2386 70 65 70Z" fill="#141416"/>
<path fill-rule="evenodd" clip-rule="evenodd" d="M65 90C67.7614 90 70 87.7614 70 85C70 82.2386 67.7614 80 65 80C62.2386 80 60 82.2386 60 85C60 87.7614 62.2386 90 65 90Z" fill="#141416"/>
<path fill-rule="evenodd" clip-rule="evenodd" d="M65 110C67.7614 110 70 107.761 70 105C70 102.239 67.7614 100 65 100C62.2386 100 60 102.239 60 105C60 107.761 62.2386 110 65 110Z" fill="#141416"/>
<path fill-rule="evenodd" clip-rule="evenodd" d="M45 90C47.7614 90 50 87.7614 50 85C50 82.2386 47.7614 80 45 80C42.2386 80 40 82.2386 40 85C40 87.7614 42.2386 90 45 90Z" fill="#141416"/>
<path fill-rule="evenodd" clip-rule="evenodd" d="M45 110C47.7614 110 50 107.761 50 105C50 102.239 47.7614 100 45 100C42.2386 100 40 102.239 40 105C40 107.761 42.2386 110 45 110Z" fill="#141416"/>
<path fill-rule="evenodd" clip-rule="evenodd" d="M45 130C47.7614 130 50 127.761 50 125C50 122.239 47.7614 120 45 120C42.2386 120 40 122.239 40 125C40 127.761 42.2386 130 45 130Z" fill="#141416"/>
<path fill-rule="evenodd" clip-rule="evenodd" d="M65 130C67.7614 130 70 127.761 70 125C70 122.239 67.7614 120 65 120C62.2386 120 60 122.239 60 125C60 127.761 62.2386 130 65 130Z" fill="#141416"/>
<path fill-rule="evenodd" clip-rule="evenodd" d="M65 150C67.7614 150 70 147.761 70 145C70 142.239 67.7614 140 65 140C62.2386 140 60 142.239 60 145C60 147.761 62.2386 150 65 150Z" fill="#141416"/>
<path fill-rule="evenodd" clip-rule="evenodd" d="M65 170C67.7614 170 70 167.761 70 165C70 162.239 67.7614 160 65 160C62.2386 160 60 162.239 60 165C60 167.761 62.2386 170 65 170Z" fill="#141416"/>
<path fill-rule="evenodd" clip-rule="evenodd" d="M45 150C47.7614 150 50 147.761 50 145C50 142.239 47.7614 140 45 140C42.2386 140 40 142.239 40 145C40 147.761 42.2386 150 45 150Z" fill="#141416"/>
<path fill-rule="evenodd" clip-rule="evenodd" d="M45 170C47.7614 170 50 167.761 50 165C50 162.239 47.7614 160 45 160C42.2386 160 40 162.239 40 165C40 167.761 42.2386 170 45 170Z" fill="#141416"/>
<path fill-rule="evenodd" clip-rule="evenodd" d="M45 190C47.7614 190 50 187.761 50 185C50 182.239 47.7614 180 45 180C42.2386 180 40 182.239 40 185C40 187.761 42.2386 190 45 190Z" fill="#141416"/>
<path fill-rule="evenodd" clip-rule="evenodd" d="M65 190C67.7614 190 70 187.761 70 185C70 182.239 67.7614 180 65 180C62.2386 180 60 182.239 60 185C60 187.761 62.2386 190 65 190Z" fill="#141416"/>
<path fill-rule="evenodd" clip-rule="evenodd" d="M65 210C67.7614 210 70 207.761 70 205C70 202.239 67.7614 200 65 200C62.2386 200 60 202.239 60 205C60 207.761 62.2386 210 65 210Z" fill="#141416"/>
<path fill-rule="evenodd" clip-rule="evenodd" d="M65 230C67.7614 230 70 227.761 70 225C70 222.239 67.7614 220 65 220C62.2386 220 60 222.239 60 225C60 227.761 62.2386 230 65 230Z" fill="#141416"/>
<path fill-rule="evenodd" clip-rule="evenodd" d="M45 210C47.7614 210 50 207.761 50 205C50 202.239 47.7614 200 45 200C42.2386 200 40 202.239 40 205C40 207.761 42.2386 210 45 210Z" fill="#141416"/>
<path fill-rule="evenodd" clip-rule="evenodd" d="M45 230C47.7614 230 50 227.761 50 225C50 222.239 47.7614 220 45 220C42.2386 220 40 222.239 40 225C40 227.761 42.2386 230 45 230Z" fill="#141416"/>
<path fill-rule="evenodd" clip-rule="evenodd" d="M25 250C27.7614 250 30 247.761 30 245C30 242.239 27.7614 240 25 240C22.2386 240 20 242.239 20 245C20 247.761 22.2386 250 25 250Z" fill="#141416"/>
<path fill-rule="evenodd" clip-rule="evenodd" d="M5 250C7.76142 250 10 247.761 10 245C10 242.239 7.76142 240 5 240C2.23858 240 0 242.239 0 245C0 247.761 2.23858 250 5 250Z" fill="#141416"/>
<path fill-rule="evenodd" clip-rule="evenodd" d="M5 270C7.76142 270 10 267.761 10 265C10 262.239 7.76142 260 5 260C2.23858 260 0 262.239 0 265C0 267.761 2.23858 270 5 270Z" fill="#141416"/>
<path fill-rule="evenodd" clip-rule="evenodd" d="M25 270C27.7614 270 30 267.761 30 265C30 262.239 27.7614 260 25 260C22.2386 260 20 262.239 20 265C20 267.761 22.2386 270 25 270Z" fill="#141416"/>
<path fill-rule="evenodd" clip-rule="evenodd" d="M25 290C27.7614 290 30 287.761 30 285C30 282.239 27.7614 280 25 280C22.2386 280 20 282.239 20 285C20 287.761 22.2386 290 25 290Z" fill="#141416"/>
<path fill-rule="evenodd" clip-rule="evenodd" d="M25 310C27.7614 310 30 307.761 30 305C30 302.239 27.7614 300 25 300C22.2386 300 20 302.239 20 305C20 307.761 22.2386 310 25 310Z" fill="#141416"/>
<path fill-rule="evenodd" clip-rule="evenodd" d="M5 290C7.76142 290 10 287.761 10 285C10 282.239 7.76142 280 5 280C2.23858 280 0 282.239 0 285C0 287.761 2.23858 290 5 290Z" fill="#141416"/>
<path fill-rule="evenodd" clip-rule="evenodd" d="M5 310C7.76142 310 10 307.761 10 305C10 302.239 7.76142 300 5 300C2.23858 300 0 302.239 0 305C0 307.761 2.23858 310 5 310Z" fill="#141416"/>
<path fill-rule="evenodd" clip-rule="evenodd" d="M5 330C7.76142 330 10 327.761 10 325C10 322.239 7.76142 320 5 320C2.23858 320 0 322.239 0 325C0 327.761 2.23858 330 5 330Z" fill="#141416"/>
<path fill-rule="evenodd" clip-rule="evenodd" d="M25 330C27.7614 330 30 327.761 30 325C30 322.239 27.7614 320 25 320C22.2386 320 20 322.239 20 325C20 327.761 22.2386 330 25 330Z" fill="#141416"/>
<path fill-rule="evenodd" clip-rule="evenodd" d="M25 350C27.7614 350 30 347.761 30 345C30 342.239 27.7614 340 25 340C22.2386 340 20 342.239 20 345C20 347.761 22.2386 350 25 350Z" fill="#141416"/>
<path fill-rule="evenodd" clip-rule="evenodd" d="M25 370C27.7614 370 30 367.761 30 365C30 362.239 27.7614 360 25 360C22.2386 360 20 362.239 20 365C20 367.761 22.2386 370 25 370Z" fill="#141416"/>
<path fill-rule="evenodd" clip-rule="evenodd" d="M5 350C7.76142 350 10 347.761 10 345C10 342.239 7.76142 340 5 340C2.23858 340 0 342.239 0 345C0 347.761 2.23858 350 5 350Z" fill="#141416"/>
<path fill-rule="evenodd" clip-rule="evenodd" d="M5 370C7.76142 370 10 367.761 10 365C10 362.239 7.76142 360 5 360C2.23858 360 0 362.239 0 365C0 367.761 2.23858 370 5 370Z" fill="#141416"/>
<path fill-rule="evenodd" clip-rule="evenodd" d="M65 250C67.7614 250 70 247.761 70 245C70 242.239 67.7614 240 65 240C62.2386 240 60 242.239 60 245C60 247.761 62.2386 250 65 250Z" fill="#141416"/>
<path fill-rule="evenodd" clip-rule="evenodd" d="M45 250C47.7614 250 50 247.761 50 245C50 242.239 47.7614 240 45 240C42.2386 240 40 242.239 40 245C40 247.761 42.2386 250 45 250Z" fill="#141416"/>
<path fill-rule="evenodd" clip-rule="evenodd" d="M45 270C47.7614 270 50 267.761 50 265C50 262.239 47.7614 260 45 260C42.2386 260 40 262.239 40 265C40 267.761 42.2386 270 45 270Z" fill="#141416"/>
<path fill-rule="evenodd" clip-rule="evenodd" d="M65 270C67.7614 270 70 267.761 70 265C70 262.239 67.7614 260 65 260C62.2386 260 60 262.239 60 265C60 267.761 62.2386 270 65 270Z" fill="#141416"/>
<path fill-rule="evenodd" clip-rule="evenodd" d="M65 290C67.7614 290 70 287.761 70 285C70 282.239 67.7614 280 65 280C62.2386 280 60 282.239 60 285C60 287.761 62.2386 290 65 290Z" fill="#141416"/>
<path fill-rule="evenodd" clip-rule="evenodd" d="M65 310C67.7614 310 70 307.761 70 305C70 302.239 67.7614 300 65 300C62.2386 300 60 302.239 60 305C60 307.761 62.2386 310 65 310Z" fill="#141416"/>
<path fill-rule="evenodd" clip-rule="evenodd" d="M45 290C47.7614 290 50 287.761 50 285C50 282.239 47.7614 280 45 280C42.2386 280 40 282.239 40 285C40 287.761 42.2386 290 45 290Z" fill="#141416"/>
<path fill-rule="evenodd" clip-rule="evenodd" d="M45 310C47.7614 310 50 307.761 50 305C50 302.239 47.7614 300 45 300C42.2386 300 40 302.239 40 305C40 307.761 42.2386 310 45 310Z" fill="#141416"/>
<path fill-rule="evenodd" clip-rule="evenodd" d="M45 330C47.7614 330 50 327.761 50 325C50 322.239 47.7614 320 45 320C42.2386 320 40 322.239 40 325C40 327.761 42.2386 330 45 330Z" fill="#141416"/>
<path fill-rule="evenodd" clip-rule="evenodd" d="M65 330C67.7614 330 70 327.761 70 325C70 322.239 67.7614 320 65 320C62.2386 320 60 322.239 60 325C60 327.761 62.2386 330 65 330Z" fill="#141416"/>
<path fill-rule="evenodd" clip-rule="evenodd" d="M65 350C67.7614 350 70 347.761 70 345C70 342.239 67.7614 340 65 340C62.2386 340 60 342.239 60 345C60 347.761 62.2386 350 65 350Z" fill="#141416"/>
<path fill-rule="evenodd" clip-rule="evenodd" d="M65 370C67.7614 370 70 367.761 70 365C70 362.239 67.7614 360 65 360C62.2386 360 60 362.239 60 365C60 367.761 62.2386 370 65 370Z" fill="#141416"/>
<path fill-rule="evenodd" clip-rule="evenodd" d="M45 350C47.7614 350 50 347.761 50 345C50 342.239 47.7614 340 45 340C42.2386 340 40 342.239 40 345C40 347.761 42.2386 350 45 350Z" fill="#141416"/>
<path fill-rule="evenodd" clip-rule="evenodd" d="M45 370C47.7614 370 50 367.761 50 365C50 362.239 47.7614 360 45 360C42.2386 360 40 362.239 40 365C40 367.761 42.2386 370 45 370Z" fill="#141416"/>
</svg>
